<svg width="100" height="100" viewBox="0 0 100 100" xmlns="http://www.w3.org/2000/svg">
  <rect width="100" height="100" rx="26" fill="#59A685"/>
  <line x1="38" y1="18" x2="32" y2="6" stroke="#2E7D52" stroke-width="2.5" stroke-linecap="round"/>
  <line x1="62" y1="18" x2="68" y2="6" stroke="#2E7D52" stroke-width="2.5" stroke-linecap="round"/>
  <circle cx="31" cy="5" r="5" fill="#FCDA81"/>
  <circle cx="69" cy="5" r="5" fill="#FCDA81"/>
  <ellipse cx="50" cy="56" rx="30" ry="34" fill="#6EC99A"/>
  <ellipse cx="38" cy="48" rx="11" ry="13" fill="#2D3142"/>
  <ellipse cx="62" cy="48" rx="11" ry="13" fill="#2D3142"/>
  <ellipse cx="38" cy="48" rx="7" ry="9" fill="#5B96CA"/>
  <ellipse cx="62" cy="48" rx="7" ry="9" fill="#5B96CA"/>
  <circle cx="38" cy="48" r="4" fill="#2D3142"/>
  <circle cx="62" cy="48" r="4" fill="#2D3142"/>
  <circle cx="40" cy="45" r="2" fill="white"/>
  <circle cx="64" cy="45" r="2" fill="white"/>
  <circle cx="47" cy="63" r="2" fill="#2E7D52"/>
  <circle cx="53" cy="63" r="2" fill="#2E7D52"/>
  <path d="M42 68 Q50 75 58 68" fill="none" stroke="#2E7D52" stroke-width="2" stroke-linecap="round"/>
  <ellipse cx="30" cy="62" rx="5" ry="3" fill="#FCDA81" opacity="0.5"/>
  <ellipse cx="70" cy="62" rx="5" ry="3" fill="#FCDA81" opacity="0.5"/>
</svg>
