<svg width="100" height="100" viewBox="0 0 100 100" xmlns="http://www.w3.org/2000/svg">
  <rect width="100" height="100" rx="26" fill="#59A685"/>
  <polygon points="26,44 34,20 44,44" fill="#FCDA81"/>
  <polygon points="56,44 66,20 74,44" fill="#FCDA81"/>
  <polygon points="28,43 34,24 42,43" fill="#F1B4AF"/>
  <polygon points="58,43 66,24 72,43" fill="#F1B4AF"/>
  <ellipse cx="50" cy="60" rx="28" ry="26" fill="#FCDA81"/>
  <ellipse cx="50" cy="70" rx="12" ry="8" fill="white"/>
  <ellipse cx="40" cy="55" rx="6" ry="7" fill="#59A685"/>
  <ellipse cx="60" cy="55" rx="6" ry="7" fill="#59A685"/>
  <ellipse cx="40" cy="55" rx="2" ry="5" fill="#2D3142"/>
  <ellipse cx="60" cy="55" rx="2" ry="5" fill="#2D3142"/>
  <circle cx="38" cy="53" r="1.5" fill="white"/>
  <circle cx="58" cy="53" r="1.5" fill="white"/>
  <polygon points="50,65 47,68 53,68" fill="#E87C7C"/>
  <line x1="28" y1="69" x2="44" y2="68" stroke="#2D3142" stroke-width="1.2" opacity="0.5"/>
  <line x1="28" y1="72" x2="44" y2="71" stroke="#2D3142" stroke-width="1.2" opacity="0.5"/>
  <line x1="56" y1="68" x2="72" y2="69" stroke="#2D3142" stroke-width="1.2" opacity="0.5"/>
  <line x1="56" y1="71" x2="72" y2="72" stroke="#2D3142" stroke-width="1.2" opacity="0.5"/>
  <path d="M46 72 Q50 77 54 72" fill="none" stroke="#E87C7C" stroke-width="1.8" stroke-linecap="round"/>
</svg>
