<svg width="100" height="100" viewBox="0 0 100 100" xmlns="http://www.w3.org/2000/svg">
  <rect width="100" height="100" rx="26" fill="#59A685"/>
  <polygon points="50,10 44,26 56,26" fill="#2E7D52"/>
  <polygon points="62,14 56,30 66,28" fill="#2E7D52"/>
  <polygon points="38,14 34,30 44,28" fill="#2E7D52"/>
  <ellipse cx="50" cy="58" rx="28" ry="26" fill="#6EC99A"/>
  <ellipse cx="50" cy="70" rx="16" ry="10" fill="#AEEDC8"/>
  <ellipse cx="39" cy="52" rx="6" ry="7" fill="white"/>
  <ellipse cx="61" cy="52" rx="6" ry="7" fill="white"/>
  <circle cx="39" cy="52" r="4" fill="#2D3142"/>
  <circle cx="61" cy="52" r="4" fill="#2D3142"/>
  <circle cx="40" cy="50" r="1.5" fill="white"/>
  <circle cx="62" cy="50" r="1.5" fill="white"/>
  <ellipse cx="46" cy="67" rx="2.5" ry="1.5" fill="#2E7D52"/>
  <ellipse cx="54" cy="67" rx="2.5" ry="1.5" fill="#2E7D52"/>
  <path d="M38 74 Q50 84 62 74" fill="none" stroke="#2E7D52" stroke-width="2" stroke-linecap="round"/>
  <rect x="44" y="74" width="5" height="5" rx="1" fill="white"/>
  <rect x="51" y="74" width="5" height="5" rx="1" fill="white"/>
  <ellipse cx="32" cy="62" rx="5" ry="3" fill="#F1B4AF" opacity="0.4"/>
  <ellipse cx="68" cy="62" rx="5" ry="3" fill="#F1B4AF" opacity="0.4"/>
</svg>
