<svg width="100" height="100" viewBox="0 0 100 100" xmlns="http://www.w3.org/2000/svg">
  <rect width="100" height="100" rx="26" fill="#F1B4AF"/>
  <polygon points="25,42 35,14 45,42" fill="#E8735A"/>
  <polygon points="55,42 65,14 75,42" fill="#E8735A"/>
  <polygon points="27,41 35,18 43,41" fill="#FCDA81"/>
  <polygon points="57,41 65,18 73,41" fill="#FCDA81"/>
  <ellipse cx="50" cy="58" rx="28" ry="26" fill="#F4A261"/>
  <ellipse cx="50" cy="68" rx="14" ry="10" fill="#FDDBB4"/>
  <ellipse cx="40" cy="54" rx="5" ry="6" fill="#2D3142"/>
  <ellipse cx="60" cy="54" rx="5" ry="6" fill="#2D3142"/>
  <circle cx="42" cy="52" r="1.8" fill="white"/>
  <circle cx="62" cy="52" r="1.8" fill="white"/>
  <ellipse cx="50" cy="65" rx="3.5" ry="2.5" fill="#C0392B"/>
  <path d="M44 70 Q50 76 56 70" fill="none" stroke="#C0392B" stroke-width="1.8" stroke-linecap="round"/>
  <ellipse cx="34" cy="62" rx="6" ry="3.5" fill="#FF8FA3" opacity="0.45"/>
  <ellipse cx="66" cy="62" rx="6" ry="3.5" fill="#FF8FA3" opacity="0.45"/>
</svg>
