<svg width="100" height="100" viewBox="0 0 100 100" xmlns="http://www.w3.org/2000/svg">
  <rect width="100" height="100" rx="26" fill="#FCDA81"/>
  <circle cx="50" cy="54" r="34" fill="#E8A030"/>
  <ellipse cx="50" cy="22" rx="8" ry="10" fill="#C8780A"/>
  <ellipse cx="74" cy="30" rx="8" ry="10" fill="#C8780A" transform="rotate(40,74,30)"/>
  <ellipse cx="82" cy="54" rx="8" ry="10" fill="#C8780A" transform="rotate(80,82,54)"/>
  <ellipse cx="74" cy="78" rx="8" ry="10" fill="#C8780A" transform="rotate(-40,74,78)"/>
  <ellipse cx="26" cy="78" rx="8" ry="10" fill="#C8780A" transform="rotate(40,26,78)"/>
  <ellipse cx="18" cy="54" rx="8" ry="10" fill="#C8780A" transform="rotate(80,18,54)"/>
  <ellipse cx="26" cy="30" rx="8" ry="10" fill="#C8780A" transform="rotate(-40,26,30)"/>
  <ellipse cx="50" cy="54" rx="26" ry="25" fill="#F4A261"/>
  <ellipse cx="50" cy="66" rx="13" ry="9" fill="#FDDBB4"/>
  <ellipse cx="40" cy="50" rx="5" ry="6" fill="#2D3142"/>
  <ellipse cx="60" cy="50" rx="5" ry="6" fill="#2D3142"/>
  <circle cx="42" cy="48" r="1.8" fill="white"/>
  <circle cx="62" cy="48" r="1.8" fill="white"/>
  <ellipse cx="50" cy="62" rx="3.5" ry="2.5" fill="#C0392B"/>
  <path d="M44 67 Q50 74 56 67" fill="none" stroke="#C0392B" stroke-width="1.8" stroke-linecap="round"/>
  <ellipse cx="34" cy="59" rx="5" ry="3" fill="#FF8FA3" opacity="0.4"/>
  <ellipse cx="66" cy="59" rx="5" ry="3" fill="#FF8FA3" opacity="0.4"/>
</svg>
