<svg width="100" height="100" viewBox="0 0 100 100" xmlns="http://www.w3.org/2000/svg">
  <rect width="100" height="100" rx="26" fill="#F1B4AF"/>
  <ellipse cx="50" cy="28" rx="16" ry="10" fill="#A0622A"/>
  <ellipse cx="36" cy="32" rx="8" ry="7" fill="#A0622A"/>
  <ellipse cx="64" cy="32" rx="8" ry="7" fill="#A0622A"/>
  <circle cx="22" cy="54" r="12" fill="#C8894A"/>
  <circle cx="78" cy="54" r="12" fill="#C8894A"/>
  <circle cx="22" cy="54" r="7" fill="#FDDBB4"/>
  <circle cx="78" cy="54" r="7" fill="#FDDBB4"/>
  <ellipse cx="50" cy="54" rx="28" ry="27" fill="#C8894A"/>
  <ellipse cx="50" cy="62" rx="20" ry="18" fill="#FDDBB4"/>
  <ellipse cx="40" cy="50" rx="5" ry="6" fill="#2D3142"/>
  <ellipse cx="60" cy="50" rx="5" ry="6" fill="#2D3142"/>
  <circle cx="42" cy="48" r="1.8" fill="white"/>
  <circle cx="62" cy="48" r="1.8" fill="white"/>
  <ellipse cx="46" cy="62" rx="2.5" ry="2" fill="#A0622A"/>
  <ellipse cx="54" cy="62" rx="2.5" ry="2" fill="#A0622A"/>
  <path d="M42 68 Q50 76 58 68" fill="none" stroke="#A0622A" stroke-width="2" stroke-linecap="round"/>
  <ellipse cx="32" cy="60" rx="6" ry="3.5" fill="#FF8FA3" opacity="0.4"/>
  <ellipse cx="68" cy="60" rx="6" ry="3.5" fill="#FF8FA3" opacity="0.4"/>
</svg>
