<svg width="100" height="100" viewBox="0 0 100 100" xmlns="http://www.w3.org/2000/svg">
  <rect width="100" height="100" rx="26" fill="#F1B4AF"/>
  <polygon points="34,26 28,6 42,22" fill="#D8BDD9"/>
  <polygon points="66,26 72,6 58,22" fill="#D8BDD9"/>
  <circle cx="34" cy="38" r="14" fill="#C084FC"/>
  <circle cx="50" cy="32" r="14" fill="#C084FC"/>
  <circle cx="66" cy="38" r="14" fill="#C084FC"/>
  <ellipse cx="50" cy="62" rx="32" ry="34" fill="#C084FC"/>
  <circle cx="38" cy="56" r="12" fill="white"/>
  <circle cx="62" cy="56" r="12" fill="white"/>
  <circle cx="38" cy="56" r="7" fill="#59A685"/>
  <circle cx="62" cy="56" r="7" fill="#59A685"/>
  <circle cx="38" cy="56" r="4" fill="#2D3142"/>
  <circle cx="62" cy="56" r="4" fill="#2D3142"/>
  <circle cx="40" cy="53" r="2" fill="white"/>
  <circle cx="64" cy="53" r="2" fill="white"/>
  <path d="M40 72 Q50 82 60 72" fill="none" stroke="#7B5EA7" stroke-width="2" stroke-linecap="round"/>
  <polygon points="46,73 44,80 48,80" fill="white"/>
  <polygon points="54,73 52,80 56,80" fill="white"/>
  <ellipse cx="26" cy="65" rx="6" ry="3.5" fill="#FF8FA3" opacity="0.5"/>
  <ellipse cx="74" cy="65" rx="6" ry="3.5" fill="#FF8FA3" opacity="0.5"/>
</svg>
