<svg width="100" height="100" viewBox="0 0 100 100" xmlns="http://www.w3.org/2000/svg">
  <rect width="100" height="100" rx="26" fill="#7B5EA7"/>
  <ellipse cx="28" cy="72" rx="12" ry="18" fill="#6A4E9A" transform="rotate(-10,28,72)"/>
  <ellipse cx="72" cy="72" rx="12" ry="18" fill="#6A4E9A" transform="rotate(10,72,72)"/>
  <ellipse cx="50" cy="78" rx="24" ry="20" fill="#553C8B"/>
  <ellipse cx="50" cy="50" rx="24" ry="24" fill="#D8BDD9"/>
  <polygon points="34,30 38,14 44,30" fill="#553C8B"/>
  <polygon points="56,30 62,14 66,30" fill="#553C8B"/>
  <circle cx="39" cy="50" r="11" fill="white"/>
  <circle cx="61" cy="50" r="11" fill="white"/>
  <circle cx="39" cy="50" r="7" fill="#FCDA81"/>
  <circle cx="61" cy="50" r="7" fill="#FCDA81"/>
  <circle cx="39" cy="50" r="4" fill="#2D3142"/>
  <circle cx="61" cy="50" r="4" fill="#2D3142"/>
  <circle cx="40" cy="48" r="1.5" fill="white"/>
  <circle cx="62" cy="48" r="1.5" fill="white"/>
  <ellipse cx="50" cy="78" rx="14" ry="12" fill="#C4A8D8"/>
  <polygon points="50,56 46,62 54,62" fill="#FCDA81"/>
</svg>
