<svg width="100" height="100" viewBox="0 0 100 100" xmlns="http://www.w3.org/2000/svg">
  <rect width="100" height="100" rx="26" fill="#5B96CA"/>
  <circle cx="28" cy="32" r="13" fill="#2D3142"/>
  <circle cx="72" cy="32" r="13" fill="#2D3142"/>
  <ellipse cx="50" cy="58" rx="28" ry="27" fill="white"/>
  <ellipse cx="39" cy="52" rx="10" ry="9" fill="#2D3142" transform="rotate(-15,39,52)"/>
  <ellipse cx="61" cy="52" rx="10" ry="9" fill="#2D3142" transform="rotate(15,61,52)"/>
  <ellipse cx="39" cy="52" rx="5" ry="6" fill="white"/>
  <ellipse cx="61" cy="52" rx="5" ry="6" fill="white"/>
  <circle cx="39" cy="52" r="3.5" fill="#2D3142"/>
  <circle cx="61" cy="52" r="3.5" fill="#2D3142"/>
  <circle cx="40" cy="50" r="1.5" fill="white"/>
  <circle cx="62" cy="50" r="1.5" fill="white"/>
  <ellipse cx="50" cy="68" rx="13" ry="9" fill="#F3F3F3"/>
  <ellipse cx="50" cy="64" rx="4" ry="3" fill="#2D3142"/>
  <path d="M44 71 Q50 77 56 71" fill="none" stroke="#2D3142" stroke-width="1.8" stroke-linecap="round"/>
  <ellipse cx="32" cy="66" rx="6" ry="3.5" fill="#F1B4AF" opacity="0.5"/>
  <ellipse cx="68" cy="66" rx="6" ry="3.5" fill="#F1B4AF" opacity="0.5"/>
</svg>
