<svg width="100" height="100" viewBox="0 0 100 100" xmlns="http://www.w3.org/2000/svg">
  <rect width="100" height="100" rx="26" fill="#7B5EA7"/>
  <ellipse cx="22" cy="54" rx="10" ry="22" fill="#553C8B"/>
  <ellipse cx="78" cy="54" rx="10" ry="22" fill="#553C8B"/>
  <ellipse cx="50" cy="60" rx="26" ry="26" fill="#FDDBB4"/>
  <ellipse cx="50" cy="36" rx="26" ry="10" fill="#553C8B"/>
  <ellipse cx="36" cy="40" rx="9" ry="6" fill="#553C8B"/>
  <ellipse cx="64" cy="40" rx="9" ry="6" fill="#553C8B"/>
  <ellipse cx="50" cy="28" rx="30" ry="7" fill="#2D3142"/>
  <polygon points="50,4 34,30 66,30" fill="#2D3142"/>
  <rect x="33" y="24" width="34" height="7" rx="3" fill="#FCDA81"/>
  <ellipse cx="40" cy="56" rx="6" ry="7" fill="#553C8B"/>
  <ellipse cx="60" cy="56" rx="6" ry="7" fill="#553C8B"/>
  <circle cx="42" cy="54" r="2" fill="white"/>
  <circle cx="62" cy="54" r="2" fill="white"/>
  <ellipse cx="33" cy="65" rx="6" ry="3.5" fill="#F1B4AF" opacity="0.65"/>
  <ellipse cx="67" cy="65" rx="6" ry="3.5" fill="#F1B4AF" opacity="0.65"/>
  <path d="M43 70 Q50 78 57 70" fill="none" stroke="#C06090" stroke-width="2" stroke-linecap="round"/>
</svg>
